Patient4_TMGait_0pt7_01_left_11_GRF.mot
version=1
nRows=26
nColumns=19
inDegrees=no
endheader
time	F1x	F1y	F1z	M1x	M1y	M1z	F2x	F2y	F2z	M2x	M2y	M2z	EC1x	EC1y	EC1z	EC2x	EC2y	EC2z
12.65	-27.4202	14.0905	-7.1932	-4.4749	-1.6424	32.3173	-14.586	678.0091	-81.894	262.3168	91.4149	758.1157	-0.0592	0.0182	-0.0073	-0.0462	0.0165	0.9585
12.6614	-18.0649	10.3913	-4.5606	-3.386	-1.2796	22.6594	-17.7873	689.1689	-78.6136	263.1949	89.729	764.7649	-0.0592	0.0182	-0.0073	-0.0462	0.0165	0.9585
12.6727	-10.347	7.3538	-2.4518	-2.4607	-0.92914	14.684	-19.9768	700.1214	-75.6925	264.422	87.8595	770.675	-0.0592	0.0182	-0.0073	-0.0462	0.0165	0.9585
12.6841	-4.579	5.0936	-0.90368	-1.7548	-0.64929	8.7158	-21.1001	710.6696	-73.3678	266.1059	86.0129	775.8434	-0.0592	0.0182	-0.0073	-0.0462	0.0165	0.9585
12.6954	-0.7128	3.6187	0.12399	-1.2814	-0.46039	4.7435	-21.2336	720.7254	-71.6266	268.262	84.2335	780.2529	-0.0592	0.0182	-0.0073	-0.0462	0.0165	0.9585
12.7068	1.6081	2.7493	0.73632	-0.99793	-0.35391	2.3595	-20.4932	730.1296	-70.3953	270.7944	82.522	783.7568	-0.0592	0.0182	-0.0073	-0.0462	0.0165	0.9585
12.7181	2.7171	2.3376	1.0465	-0.86155	-0.33197	1.2016	-18.9086	738.6804	-69.4389	273.553	80.6929	786.0823	-0.0592	0.0182	-0.0073	-0.0462	0.0165	0.9585
12.7295	3.035	2.1672	1.1571	-0.8096	-0.36447	0.75461	-16.5241	746.1837	-68.6127	276.3745	78.6368	786.9792	-0.0592	0.0182	-0.0073	-0.0462	0.0165	0.9585
12.7409	2.805	2.0842	1.1538	-0.78333	-0.45551	0.67649	-13.3209	752.5863	-67.7451	279.1409	76.1976	786.3677	-0.0592	0.0182	-0.0073	-0.0462	0.0165	0.9585
12.7522	2.3127	1.9035	1.1001	-0.72027	-0.57883	0.57848	-9.3881	757.8552	-66.7799	281.7479	73.3572	784.24	-0.0592	0.0182	-0.0073	-0.0462	0.0165	0.9585
12.7636	1.6576	1.4811	1.0349	-0.56675	-0.73794	0.26479	-4.8653	761.921	-65.705	284.0855	70.1595	780.6052	-0.0592	0.0182	-0.0073	-0.0462	0.0165	0.9585
12.7749	1.0126	0.64696	0.9851	-0.26742	-0.90814	-0.55623	0.031898	764.6214	-64.5576	286.014	66.7307	775.4523	-0.0592	0.0182	-0.0073	-0.0462	0.0165	0.9585
12.7863	0.40614	-0.68514	0.94104	0.21455	-1.0679	-1.97	5.0214	765.6691	-63.4503	287.3605	63.2861	768.6656	-0.0592	0.0182	-0.0073	-0.0462	0.0165	0.9585
12.7976	-0.029093	-2.5925	0.90106	0.90398	-1.1699	-4.1228	9.8615	764.841	-62.463	287.9778	60.0071	760.2099	-0.0592	0.0182	-0.0073	-0.0462	0.0165	0.9585
12.809	-0.27481	-4.9822	0.82515	1.7727	-1.1566	-6.8691	14.2978	761.8917	-61.7302	287.7273	57.1184	750.0128	-0.0592	0.0182	-0.0073	-0.0462	0.0165	0.9585
12.8204	-0.1563	-7.6497	0.69581	2.7388	-0.94862	-9.9957	18.1555	756.7633	-61.2958	286.5519	54.7357	738.168	-0.0592	0.0182	-0.0073	-0.0462	0.0165	0.9585
12.8317	0.40335	-10.0706	0.45086	3.611	-0.44417	-12.8282	21.2951	749.618	-61.223	284.4898	52.9716	724.9595	-0.0592	0.0182	-0.0073	-0.0462	0.0165	0.9585
12.8431	1.6403	-11.4085	0.052737	4.0787	0.48341	-14.386	23.6516	740.8674	-61.4974	281.6882	51.8413	710.8604	-0.0592	0.0182	-0.0073	-0.0462	0.0165	0.9585
12.8544	3.6806	-10.315	-0.57243	3.6595	1.973	-13.0274	25.2898	731.1286	-62.1127	278.3774	51.326	696.4867	-0.0592	0.0182	-0.0073	-0.0462	0.0165	0.9585
12.8658	6.7286	-4.9919	-1.4467	1.7078	4.1245	-6.6292	26.3563	721.0115	-63.0188	274.8024	51.333	682.3995	-0.0592	0.0182	-0.0073	-0.0462	0.0165	0.9585
12.8771	10.7828	6.8508	-2.5911	-2.5892	6.9611	7.6094	27.0726	711.0053	-64.1328	271.1651	51.7153	669.026	-0.0592	0.0182	-0.0073	-0.0462	0.0165	0.9585
12.8885	15.7119	27.6883	-3.9267	-10.1116	10.3334	32.6401	27.6424	701.2206	-65.3298	267.5339	52.2868	656.4313	-0.0592	0.0182	-0.0073	-0.0462	0.0165	0.9585
12.8999	20.9188	59.8329	-5.2889	-21.6666	13.8287	71.2857	28.2428	691.2953	-66.3778	263.8013	52.774	644.2489	-0.0592	0.0182	-0.0073	-0.0462	0.0165	0.9585
12.9112	25.3556	104.5385	-6.3384	-37.6824	16.6553	125.0437	28.9497	680.3493	-66.9946	259.6626	52.8883	631.6379	-0.0592	0.0182	-0.0073	-0.0462	0.0165	0.9585
12.9226	27.1294	160.9325	-6.535	-57.8071	17.4864	192.9153	29.7321	667.0509	-66.811	254.6469	52.3039	617.356	-0.0592	0.0182	-0.0073	-0.0462	0.0165	0.9585
12.9339	24.0255	224.7841	-5.0585	-80.4876	14.5643	269.8152	30.4526	649.8687	-65.4999	248.2036	50.7734	599.9879	-0.0592	0.0182	-0.0073	-0.0462	0.0165	0.9585
